<svg xmlns="http://www.w3.org/2000/svg" xmlns:xlink="http://www.w3.org/1999/xlink" viewBox="0 0 132.4 84.13"><defs><style>.cls-1{fill:none;}.cls-2{clip-path:url(#clip-path);}.cls-3{fill:url(#linear-gradient);}</style><clipPath id="clip-path"><path class="cls-1" d="M48.91,22.69a27.3,27.3,0,0,0-6.57-1A25.06,25.06,0,0,0,18.82,55.36H14.39a14.39,14.39,0,1,0,0,28.77h94.9a14.31,14.31,0,0,0,10.15-4.2A27.55,27.55,0,0,0,104.84,29c-.81,0-1.59,0-2.38.11.05-.71.09-1.42.09-2.13a27,27,0,0,0-53.64-4.3"/></clipPath><linearGradient id="linear-gradient" x1="-2007.1" y1="1165.99" x2="-2006.1" y2="1165.99" gradientTransform="matrix(0, -84.13, -84.13, 0, 98159.07, -168769.74)" gradientUnits="userSpaceOnUse"><stop offset="0" stop-color="#122f59"/><stop offset="0.06" stop-color="#13315b"/><stop offset="0.62" stop-color="#1c4170"/><stop offset="1" stop-color="#1f4777"/></linearGradient></defs><title>Asset 10</title><g id="Layer_2" data-name="Layer 2"><g id="Layer_1-2" data-name="Layer 1"><g class="cls-2"><rect class="cls-3" width="132.4" height="84.13"/></g></g></g></svg>